<svg xmlns="http://www.w3.org/2000/svg" version="1.1" xmlns:xlink="http://www.w3.org/1999/xlink" width="1500" height="123" viewBox="0 0 1500 123"><svg xml:space="preserve" width="1500" height="123" data-version="2" data-id="lg_BppeV63YYojltTCGEa" viewBox="0 0 562 123" x="0" y="0"><rect width="100%" height="100%" fill="transparent"></rect><path fill="#fff" d="M52.72 26.03h-3.47q.76-4.08.76-5.98 0-1.89-.45-2.96t-1.5-1.68q-1.81-1.09-6.87-1.09h-6.1v41.74q0 2.09.25 3.27.25 1.17 1.23 1.79.97.61 2.91.9 1.93.29 5.29.61v3.15H18.39v-3.15q6.4-.61 7.57-1.37 1.18-.76 1.49-1.93.3-1.18.3-3.27V14.32h-6.94q-6.5 0-9.39 6.36-.9 1.96-1.81 4.2L9.18 26H5.64l4.05-15.51h46.82z"></path><rect width="50.87" height="55.29" x="-25.43" y="-27.64" fill="none" rx="0" ry="0" transform="translate(31.57 38.63)"></rect><path fill="#fff" d="M78.27 12.55v17.1q3.25-6.4 12.03-10.84 6.29 3.36 9.54 7.33 5.31 6.5 6.43 18.97.36 4.37.36 8.42t.13 5.49q.12 1.45.59 2.17t1.36.96q.88.23 1.77.38.88.14 1.26.16.38.02.74.09v3H92.86v-3q2.06-.25 3.29-.49 1.23-.23 1.88-.88 1.05-1.05 1.05-5.82v-4.23q0-8.2-.4-11.43-.4-3.24-.99-5.3-.6-2.06-1.61-3.9-1.92-3.43-6.11-6.83-5.38 3.29-7.98 6.76-3.72 4.98-3.72 12.32v12.25q0 2.49.14 3.88.15 1.39.78 2.12.63.72 1.88.99 1.24.27 3.45.56v3H64.68v-2.96l.07-.04q2.13-.25 3.36-.52 1.23-.28 1.85-.93.94-1.01.94-4.98v-43.8q0-4.01-.85-4.8-.85-.8-2.08-1.03-1.23-.24-3.29-.42V3.27h19.84V6.3q-2.03.22-3.25.44-1.23.21-1.88.79-1.12.94-1.12 5.02"></path><rect width="47.8" height="62.51" x="-23.9" y="-31.25" fill="none" rx="0" ry="0" transform="translate(89.08 35.02)"></rect><path fill="#fff" d="m127.33 14.25-6.57-6.54 6.57-6.47 6.44 6.47zm-9.57 51.53v-3l1.26-.18q1.56-.22 2.53-.45.98-.24 1.52-.85.94-1.12.94-5.13v-24.5q0-4.12-.87-4.97-.86-.85-2.09-1.07-1.23-.21-3.29-.39v-3.11h19.76v3.11q-2.06.21-3.28.43-1.23.22-1.88.83-1.05.98-1.05 5.17v24.5q0 4.12.65 4.87.65.76 1.61 1.02.95.25 2.54.5l1.41.22v3z"></path><rect width="19.76" height="64.54" x="-9.88" y="-32.27" fill="none" rx="0" ry="0" transform="translate(128.14 34.01)"></rect><path fill="#fff" d="M158.26 22.13v7.52q3.29-6.54 11.78-10.84 6.25 3.32 9.61 7.29 5.32 6.4 6.44 19.01.36 4.34.36 8.38 0 4.05.14 5.5.15 1.44.62 2.18.47.74 1.37.98.9.23 1.81.38.9.14 1.28.16.38.02.78.09v3h-19.77v-3q2.06-.25 3.29-.49 1.23-.23 1.88-.88 1.05-1.05 1.05-5.82V51.4q0-8.28-.4-11.47-.4-3.2-1-5.28-.59-2.08-1.6-3.92-1.99-3.47-6.22-6.83-11.42 7.05-11.42 19.08v12.25q0 4.77.71 5.71.7.94 1.75 1.21t2.86.52l.94.11v3h-19.77v-2.96q.22-.11.56-.13.34-.02 1.27-.15.92-.12 1.91-.38.99-.25 1.54-.86.9-.98.9-4.92V30.62q0-3.29-.83-4.03-.83-.74-2.06-.97-1.23-.24-3.29-.38v-3.11z"></path><rect width="47.7" height="46.97" x="-23.85" y="-23.48" fill="none" rx="0" ry="0" transform="translate(169.1 42.8)"></rect><path fill="#fff" d="M197.72 65.78v-3l1.23-.18q3.29-.44 3.97-1.19 1.02-1.16 1.02-5.24V13.46q0-4.09-.85-4.92-.85-.83-2.08-1.06-1.23-.24-3.29-.42V3.99h19.8v3.07q-2.06.22-3.29.44-1.22.21-1.88.83-1.08.97-1.08 5.13v42.71q0 4.12.67 4.89.67.78 1.63 1.01.95.24 2.58.49l1.37.22v3zm44.88 8.02-28.8-31.51 11.74-11.34.94-.87q.47-.43.91-.87l.79-.87q.8-.86.8-1.42 0-.56-.38-.91-.38-.34-1-.48-1.01-.29-2.82-.29v-3.15h19.16v2.93q-6 .65-9.98 4.66l-11.05 11.2 22.15 30.86z"></path><rect width="47.34" height="69.81" x="-23.67" y="-34.91" fill="none" rx="0" ry="0" transform="translate(221.89 39.4)"></rect><path fill="#fff" d="M249.86 65.78v-3q1.63-.36 2.58-.63.96-.27 1.43-.92.8-1.05.8-5.42V26.54h-6.18v-3.33q5.27-.76 6.07-1.55h-.04q.8-1.08 1.41-4.84.62-3.76.76-5.53l5.24-2.17v13.01h13.08v4.41h-13.08V55.7q0 3.36.49 4.28.48.92 1.21 1.35.72.44 1.95.65 1.99.37 7.26.44v3.36z"></path><rect width="26.52" height="56.66" x="-13.26" y="-28.33" fill="none" rx="0" ry="0" transform="translate(262.25 37.95)"></rect><path fill="#fff" d="M291.16 28.85q-.61 1.12-.61 2.58 0 1.47 1.37 3.53l-2.46 1.48q-4.26-.72-6.18-3.58-.68-.97-.68-2.53 0-1.55 1.26-3.23 1.27-1.68 3.54-2.95 4.99-2.74 12.58-2.74 12.35 0 15.35 7.15.94 2.24.94 4.95v22.66q0 4.19.8 5.04.79.85 1.93 1.1 1.14.25 3.05.43v3.04h-8.96q-2.67 0-6.1.29-7.05.65-10.84.65-3.8 0-6.69-1.01-2.89-1.02-4.73-2.68-3.58-3.21-3.58-8.2 0-5.38 6.25-9.94 7.52-5.56 21.57-5.85v-6.32q0-7.52-10-7.52-5.71 0-7.81 3.65m17.81 13.91v.04h.08zm0 12.83V42.8q-19.54 1.15-19.54 12.03 0 5.74 5.81 7.41 1.81.54 4.52.54 2.71 0 4.61-.31 1.89-.31 2.92-1.1 1.03-.8 1.36-2.19.32-1.39.32-3.59"></path><rect width="40.9" height="45.31" x="-20.45" y="-22.66" fill="none" rx="0" ry="0" transform="translate(302.1 44.56)"></rect><path fill="#fff" d="M343.19 22.13v7.52q3.29-6.54 11.78-10.84 6.25 3.32 9.61 7.29 5.31 6.4 6.43 19.01.37 4.34.37 8.38 0 4.05.14 5.5.14 1.44.61 2.18.47.74 1.38.98.9.23 1.8.38.91.14 1.29.16.38.02.77.09v3h-19.76v-3q2.06-.25 3.29-.49 1.23-.23 1.88-.88 1.04-1.05 1.04-5.82V51.4q0-8.28-.39-11.47-.4-3.2-1-5.28-.59-2.08-1.61-3.92-1.98-3.47-6.21-6.83-11.42 7.05-11.42 19.08v12.25q0 4.77.71 5.71.7.94 1.75 1.21t2.85.52l.94.11v3h-19.76v-2.96q.22-.11.56-.13.34-.02 1.26-.15.92-.12 1.92-.38.99-.25 1.53-.86.91-.98.91-4.92V30.62q0-3.29-.83-4.03-.84-.74-2.06-.97-1.23-.24-3.29-.38v-3.11z"></path><rect width="47.69" height="46.97" x="-23.84" y="-23.48" fill="none" rx="0" ry="0" transform="translate(354.02 42.8)"></rect><path fill="#fff" d="M382.65 65.78v-3l1.23-.18q3.29-.44 3.97-1.19 1.01-1.16 1.01-5.24V13.46q0-4.09-.85-4.92-.84-.83-2.07-1.06-1.23-.24-3.29-.42V3.99h19.8v3.07q-2.06.22-3.29.44-1.23.21-1.88.83-1.08.97-1.08 5.13v42.71q0 4.12.67 4.89.67.78 1.62 1.01.96.24 2.59.49l1.37.22v3zm44.88 8.02-28.8-31.51 11.74-11.34.94-.87q.47-.43.9-.87l.8-.87q.79-.86.79-1.42 0-.56-.38-.91-.37-.34-.99-.48-1.01-.29-2.82-.29v-3.15h19.15v2.93q-6 .65-9.97 4.66l-11.06 11.2 22.15 30.86z"></path><rect width="47.33" height="69.81" x="-23.66" y="-34.91" fill="none" rx="0" ry="0" transform="translate(406.81 39.4)"></rect><path fill="#fff" d="m465.57 58.33 2.06 2.06q-4.95 6.11-14.85 6.11-9.54 0-14.92-6.18-5.17-5.96-5.17-15.75 0-10.08 5.75-16.66 5.71-6.5 14.63-6.5 6.83 0 10.66 2.89 3.65 2.71 3.65 7.44 0 6.11-5.93 10.3-6.9 4.88-20.88 4.99 1.26 14.77 13.37 14.77 7.59 0 11.63-3.47m-25.11-15.17q12.86-.25 17.42-6.11 1.66-2.17 1.66-5.38 0-4.19-3.61-5.78-1.41-.62-3.51-.62-2.09 0-3.72.74-1.63.74-2.93 2.03-1.3 1.28-2.27 3-.98 1.71-1.63 3.7-1.34 4.08-1.41 8.42"></path><rect width="34.94" height="45.09" x="-17.47" y="-22.55" fill="none" rx="0" ry="0" transform="translate(450.66 44.45)"></rect><path fill="#fff" d="m504.45 36.84-1.98-1.59q2.02-1.96 2.02-5.93 0-1.95-1.84-3.07-1.56-.9-4.74-.9-6.86 0-6.86 4.48v27.46q0 1.55.3 2.56.31 1.01 1.4 1.63 1.87 1.08 8.67 1.3v3h-24.14v-2.96l.07-.04q4.27-.43 5.12-1.21.84-.78 1.04-1.81.2-1.03.2-2.76V31.96q0-3.94-.77-4.88-.78-.94-1.9-1.3-1.12-.36-2.96-.58v-3.07h7.48q4.44 0 6.32-.18t2.96-.25q3.25-.29 5.29-.29 2.05 0 4.21.32 2.17.33 3.83 1.12 3.65 1.74 3.65 5.39 0 2.92-2.38 5.45-2.24 2.39-4.99 3.15"></path><rect width="34.54" height="44.37" x="-17.27" y="-22.18" fill="none" rx="0" ry="0" transform="translate(495.05 44.1)"></rect><path fill="#fff" d="m546.73 34.96-2.06-1.48q1.37-2.14 1.37-3.85 0-1.72-2.04-3.04t-4.86-1.32q-2.82 0-4.34.51-1.51.5-2.56 1.41-2.06 1.77-2.06 4.73 0 3.58 6 6.61 1.73.91 2.92 1.45 9.15 4.12 11.6 6.09 2.46 1.97 3.56 3.77 1.1 1.81 1.1 4.48 0 2.68-1.48 5.03t-3.94 3.97q-4.98 3.33-11.99 3.33-6.54 0-11.42-2.68-5.35-2.85-5.2-7.26.07-2.6 2.24-4.66 1.95-1.85 4.66-2.46l1.59 1.84q-1.38 1.7-1.38 4.56 0 2.49 2.61 4.44 2.89 2.2 7.39 2.2 4.49 0 7.08-2.02 2.58-2.02 2.58-5.42 0-3.97-6.65-7.01-1.98-.9-3.25-1.43-1.26-.52-1.59-.66-.32-.15-1.79-.82-1.46-.67-3.79-2-2.33-1.34-4.1-2.93-3.8-3.36-3.8-7.59 0-5.24 4.63-8.38 4.41-2.96 11.71-2.96 5.63 0 9.3 2.24 3.67 2.24 3.67 5.56 0 2.1-1.99 3.83-1.73 1.48-3.72 1.92"></path><rect width="34.07" height="45.24" x="-17.04" y="-22.62" fill="none" rx="0" ry="0" transform="translate(538.83 44.53)"></rect><path fill="#fff" d="M144.43 97.16v1.82h-5.48v15.34H137V98.98h-5.49v-1.82z"></path><rect width="12.92" height="17.16" x="-6.46" y="-8.58" fill="none" rx="0" ry="0" transform="translate(138.47 106.24)"></rect><path fill="#fff" d="M152.18 101.97q1.59 0 2.73.53 1.15.53 1.89 1.43.74.9 1.09 2.05.35 1.16.35 2.43 0 1.28-.35 2.41-.35 1.13-1.08 1.97-.73.85-1.86 1.34-1.13.5-2.66.5-1.59 0-2.75-.52-1.15-.52-1.91-1.39-.75-.87-1.12-2.02-.36-1.14-.36-2.42 0-1.27.36-2.41.37-1.15 1.11-2.02.74-.87 1.88-1.38 1.15-.5 2.68-.5m.08 11.28q1.04 0 1.81-.39.76-.39 1.27-1.05.51-.67.74-1.54.24-.87.24-1.83 0-.99-.25-1.9-.25-.91-.77-1.6-.52-.69-1.31-1.1-.79-.42-1.89-.42-1.06 0-1.82.39-.75.39-1.24 1.04-.5.65-.73 1.52-.24.87-.24 1.84 0 .98.25 1.89.25.91.76 1.62.5.7 1.3 1.11.79.42 1.88.42"></path><rect width="12.09" height="12.66" x="-6.04" y="-6.33" fill="none" rx="0" ry="0" transform="translate(152.7 108.8)"></rect><path fill="#fff" d="M163.15 110.73v-.11q-1.24-.49-1.79-1.57t-.55-2.33q0-1.01.34-1.87.34-.86.98-1.51.63-.65 1.53-1.01t2.04-.36q.68 0 1.34.13t1.16.39q1.09-.03 2.04-.13.95-.11 1.78-.34l.13.1-.18 1.43-.13.13-2.37-.1-.02.08q.67.54.98 1.43.32.88.32 1.71 0 .86-.33 1.64-.32.78-.95 1.36-.62.59-1.54.94-.93.35-2.12.35-.29 0-.5-.01-.21-.01-.39-.01-.54.18-.82.49-.27.31-.27.52 0 .26.35.45.35.2 1.13.28l2.52.26q.86.08 1.6.35.74.27 1.29.7.55.43.87 1.04.33.61.33 1.39 0 .76-.34 1.55t-1.02 1.36q-.67.58-1.87.94-1.19.36-2.75.36-1.33 0-2.38-.27-1.06-.27-1.77-.75-.72-.48-1.09-1.11-.38-.62-.38-1.32 0-.52.21-1.03t.54-.95q.34-.44.8-.78.45-.34.95-.52v-.1q-1.07-.5-1.07-1.36 0-.54.4-.98.41-.45 1-.86m2.66-.94q.72 0 1.28-.25.56-.24.95-.65.39-.4.6-.94.21-.55.21-1.15 0-.6-.21-1.22t-.61-1.13q-.4-.51-1-.82-.6-.31-1.38-.31-.75 0-1.31.3t-.94.76q-.38.47-.56 1.04-.18.58-.18 1.15 0 .6.2 1.17.19.57.59 1.02.41.46.99.75.59.28 1.37.28m-.84 4.66q-.59 0-1.1.23-.51.23-.88.6-.38.36-.6.82-.22.45-.22.89 0 .99 1.05 1.58 1.05.58 2.85.58.85 0 1.6-.14.74-.14 1.27-.44t.84-.73q.32-.43.32-1.03 0-1.17-1.26-1.68-1.27-.5-3.87-.68"></path><rect width="11.83" height="18.79" x="-5.92" y="-9.39" fill="none" rx="0" ry="0" transform="translate(166.74 111.86)"></rect><path fill="#fff" d="M180.08 101.97q2.29 0 3.54 1.15 1.24 1.16 1.24 3.27 0 .44-.05.89-.05.46-.18.67h-8.76v.26q0 .98.26 1.89.26.91.78 1.62.52.7 1.31 1.11.79.42 1.89.42.62 0 1.22-.14.6-.15 1.14-.37.55-.22 1.02-.48.46-.26.83-.52l.31 1.48q-.34.21-.83.46-.5.25-1.09.45-.6.21-1.32.35-.71.15-1.49.15-1.46 0-2.58-.51-1.11-.51-1.87-1.38-.75-.87-1.14-2.01-.39-1.15-.39-2.39 0-1.28.4-2.44.4-1.15 1.18-2.04.78-.88 1.94-1.39 1.16-.5 2.64-.5m-.08 1.45q-1.71 0-2.66.9-.95.9-1.29 2.25h7.1q.02-.13.02-.24v-.23q0-.65-.26-1.16-.26-.5-.7-.84-.44-.34-1.01-.51-.57-.17-1.2-.17"></path><rect width="10.94" height="12.66" x="-5.47" y="-6.33" fill="none" rx="0" ry="0" transform="translate(179.89 108.8)"></rect><path fill="#fff" d="M188.71 111.92v-8.34h-2v-.96l2.05-.26.39-3.62h1.38v3.62h2.81v1.22h-2.81v8.29q0 .83.25 1.09.25.26.77.26.59 0 1.06-.18.47-.18.83-.44l.37 1.38q-.44.21-1.16.41-.71.21-1.57.21-.83 0-1.3-.23-.47-.24-.7-.63-.24-.39-.3-.87-.07-.48-.07-.95"></path><rect width="7.1" height="15.86" x="-3.55" y="-7.93" fill="none" rx="0" ry="0" transform="translate(190.76 107.17)"></rect><path fill="#fff" d="M206.52 114.32h-1.82v-7.91q0-1.58-.7-2.25-.7-.66-1.79-.66-.65 0-1.29.21t-1.18.61q-.55.4-.97.99-.41.58-.65 1.34v7.67h-1.82V95.08h1.82v9.51q.34-1.09 1.47-1.86 1.13-.76 2.88-.76.83 0 1.57.22.74.22 1.29.71.54.5.87 1.3.32.81.32 1.98z"></path><rect width="10.22" height="19.24" x="-5.11" y="-9.62" fill="none" rx="0" ry="0" transform="translate(201.91 105.2)"></rect><path fill="#fff" d="M215.83 101.97q2.29 0 3.54 1.15 1.24 1.16 1.24 3.27 0 .44-.05.89-.05.46-.18.67h-8.76v.26q0 .98.26 1.89.26.91.78 1.62.52.7 1.31 1.11.79.42 1.89.42.62 0 1.22-.14.6-.15 1.14-.37.55-.22 1.02-.48.46-.26.83-.52l.31 1.48q-.34.21-.83.46-.5.25-1.09.45-.6.21-1.32.35-.71.15-1.49.15-1.46 0-2.58-.51-1.11-.51-1.87-1.38-.75-.87-1.14-2.01-.39-1.15-.39-2.39 0-1.28.4-2.44.4-1.15 1.18-2.04.78-.88 1.94-1.39 1.16-.5 2.64-.5m-.08 1.45q-1.71 0-2.66.9-.95.9-1.29 2.25h7.1q.02-.13.02-.24v-.23q0-.65-.26-1.16-.26-.5-.7-.84-.44-.34-1.01-.51-.57-.17-1.2-.17"></path><rect width="10.94" height="12.66" x="-5.47" y="-6.33" fill="none" rx="0" ry="0" transform="translate(215.64 108.8)"></rect><path fill="#fff" d="m230.91 102.56-.55 1.72q-.41-.23-.83-.38-.41-.14-.8-.14-.52 0-.99.29-.47.28-.86.78-.39.49-.69 1.14-.3.65-.45 1.35v7h-1.82v-11.96h1.43l.2 2.62h.11q.18-.6.48-1.14.3-.55.73-.96.43-.42.97-.67.55-.24 1.25-.24.49 0 1.04.16.55.17.78.43"></path><rect width="6.99" height="12.35" x="-3.5" y="-6.17" fill="none" rx="0" ry="0" transform="translate(227.91 108.64)"></rect><path fill="#fff" d="m233.46 116.84-.52-.5 1.01-1.89h-.65v-2.34h2.06v2.73z"></path><rect width="2.42" height="4.73" x="-1.21" y="-2.37" fill="none" rx="0" ry="0" transform="translate(234.65 114.97)"></rect><path fill="#fff" d="M253.82 104.31v1.82h-5.44v8.19h-1.95V97.16h9.28v1.82h-7.33v5.33z"></path><rect width="9.28" height="17.16" x="-4.64" y="-8.58" fill="none" rx="0" ry="0" transform="translate(251.57 106.24)"></rect><path fill="#fff" d="M267.39 114.32h-1.43l-.21-2.14h-.1q-.32.5-.84.94-.52.44-1.15.78-.64.34-1.38.53-.74.2-1.47.2-1.72 0-2.57-1-.86-1-.86-2.51 0-1.48.75-2.37.76-.88 1.85-1.32 1.09-.45 2.3-.58 1.21-.13 2.12-.13h1.17v-.31q0-.99-.27-1.51-.28-.52-.8-.88-.44-.29-.95-.4-.5-.12-1.34-.12-1.09 0-1.92.29-.83.28-1.61.75l-.42-1.56q1.74-1.01 4.16-1.01.96 0 1.82.16.86.17 1.51.59.75.47 1.2 1.33.44.85.44 2.13zm-6.03-1.23q1.06 0 2.26-.67 1.19-.68 1.95-1.95v-2.42h-.24q-1.06 0-2.13.08-1.06.08-1.93.39-.88.31-1.42.89-.55.59-.55 1.6 0 1.02.56 1.55t1.5.53"></path><rect width="10.01" height="12.66" x="-5" y="-6.33" fill="none" rx="0" ry="0" transform="translate(262.88 108.8)"></rect><path fill="#fff" d="M274.82 103.42q-1.24 0-1.8.46-.56.45-.56 1.23 0 .26.08.55.07.28.3.53.22.25.59.47.38.22 1 .35l1.85.42q1.09.23 1.76.63.66.41 1.02.87.37.47.48.95.12.48.12.9 0 .81-.32 1.51-.33.7-.94 1.22-.61.52-1.5.82-.88.3-1.97.3-1.38 0-2.55-.41-1.17-.4-1.87-.89l.47-1.69q.93.86 2.08 1.25 1.14.39 2.05.39 1.3 0 1.98-.64.67-.64.67-1.34 0-.23-.02-.53-.03-.3-.21-.61-.18-.32-.55-.59-.36-.27-1.04-.43l-2.49-.62q-.86-.21-1.41-.55-.54-.34-.86-.74-.31-.4-.44-.86-.13-.45-.13-.92 0-1.59 1.19-2.54 1.18-.94 3.15-.94 1.02 0 2.19.27t1.97.79l-.49 1.56q-.52-.44-1.55-.8-1.02-.37-2.25-.37"></path><rect width="9.15" height="12.66" x="-4.58" y="-6.33" fill="none" rx="0" ry="0" transform="translate(275.58 108.8)"></rect><path fill="#fff" d="M283.33 111.92v-8.34h-2.01v-.96l2.06-.26.39-3.62h1.38v3.62h2.8v1.22h-2.8v8.29q0 .83.24 1.09.25.26.77.26.6 0 1.07-.18.46-.18.83-.44l.36 1.38q-.44.21-1.15.41-.72.21-1.58.21-.83 0-1.3-.23-.47-.24-.7-.63-.23-.39-.3-.87-.06-.48-.06-.95"></path><rect width="7.1" height="15.86" x="-3.55" y="-7.93" fill="none" rx="0" ry="0" transform="translate(285.37 107.17)"></rect><path fill="#fff" d="M296.27 101.97q2.29 0 3.54 1.15 1.25 1.16 1.25 3.27 0 .44-.05.89-.06.46-.19.67h-8.76v.26q0 .98.26 1.89.26.91.78 1.62.52.7 1.32 1.11.79.42 1.88.42.62 0 1.22-.14.6-.15 1.15-.37.54-.22 1.01-.48t.83-.52l.31 1.48q-.33.21-.83.46-.49.25-1.09.45-.6.21-1.31.35-.72.15-1.5.15-1.45 0-2.57-.51-1.12-.51-1.87-1.38-.76-.87-1.15-2.01-.39-1.15-.39-2.39 0-1.28.41-2.44.4-1.15 1.18-2.04.78-.88 1.94-1.39 1.15-.5 2.63-.5m-.07 1.45q-1.72 0-2.67.9t-1.29 2.25h7.1q.03-.13.03-.24v-.23q0-.65-.26-1.16-.26-.5-.7-.84-.45-.34-1.02-.51-.57-.17-1.19-.17"></path><rect width="10.95" height="12.66" x="-5.47" y="-6.33" fill="none" rx="0" ry="0" transform="translate(296.08 108.8)"></rect><path fill="#fff" d="m311.35 102.56-.54 1.72q-.42-.23-.83-.38-.42-.14-.81-.14-.52 0-.99.29-.47.28-.86.78-.39.49-.68 1.14-.3.65-.46 1.35v7h-1.82v-11.96h1.43l.21 2.62h.1q.18-.6.48-1.14.3-.55.73-.96.43-.42.98-.67.54-.24 1.24-.24.5 0 1.04.16.55.17.78.43"></path><rect width="6.99" height="12.35" x="-3.5" y="-6.17" fill="none" rx="0" ry="0" transform="translate(308.36 108.64)"></rect><path fill="#fff" d="m327.34 97.16 7.54 17.16h-2.21l-2.52-5.78h-7.67l-2.29 5.78h-2.08l6.87-17.16zm-1.22 2.18-2.91 7.38h6.14z"></path><rect width="16.77" height="17.16" x="-8.38" y="-8.58" fill="none" rx="0" ry="0" transform="translate(327 106.24)"></rect><path fill="#fff" d="M346.92 114.32h-1.82v-7.91q0-1.56-.7-2.23-.7-.68-1.79-.68-.65 0-1.29.21t-1.18.61q-.55.4-.97.99-.41.58-.65 1.34v7.67h-1.82v-11.96h1.43l.21 2.23h.11q.33-1.09 1.5-1.86 1.17-.76 2.92-.76.83 0 1.57.22.74.22 1.29.71.54.5.87 1.3.32.81.32 1.98z"></path><rect width="10.22" height="12.35" x="-5.11" y="-6.17" fill="none" rx="0" ry="0" transform="translate(342.31 108.64)"></rect><path fill="#fff" d="M355.35 114.63q-1.33 0-2.32-.52-.99-.52-1.64-1.38-.65-.86-.97-1.99-.33-1.13-.33-2.38 0-1.27.36-2.44.35-1.17 1.04-2.04.68-.87 1.72-1.39 1.04-.52 2.42-.52 1.74 0 2.86.75 1.12.75 1.46 1.87v-9.51h1.82v19.24h-1.43l-.21-2.14h-.1q-.63.97-1.82 1.71-1.2.74-2.86.74m.2-1.54q1.25 0 2.46-.67 1.21-.68 1.94-1.95v-3.82q-.47-1.49-1.57-2.32-1.11-.83-2.49-.83-.91 0-1.62.36-.72.37-1.21 1.02-.5.65-.77 1.56t-.27 2q0 .83.18 1.66.18.84.6 1.5.41.66 1.09 1.08.68.41 1.66.41"></path><rect width="11.68" height="19.55" x="-5.84" y="-9.78" fill="none" rx="0" ry="0" transform="translate(356.43 105.36)"></rect><path fill="#fff" d="M372.74 114.32V97.16q.83-.06 1.95-.1 1.12-.03 2.05-.03 2.32 0 3.72 1.13 1.41 1.13 1.41 3.34 0 1.04-.43 1.88-.43.85-1.34 1.45 1.56.52 2.44 1.63.89 1.12.89 2.84 0 1.09-.39 2.05-.39.96-1.2 1.69-.81.73-2 1.16-1.2.43-2.81.43-1.27 0-2.37-.09-1.09-.09-1.92-.22m4.21-1.41q2.11 0 3.21-.97 1.11-.98 1.11-2.85 0-1.48-1-2.35-1-.87-3.37-.87-.57 0-1.13.01-.56.01-1.08.04v6.91q1.01.08 2.26.08m-.67-8.53q1.63 0 2.53-.83.9-.83.9-2.26 0-1.14-.63-1.85-.62-.7-2.18-.7-.57 0-1.13.01l-1.08.04v5.57q.36.02.77.02z"></path><rect width="10.69" height="17.6" x="-5.34" y="-8.8" fill="none" rx="0" ry="0" transform="translate(378.58 106.33)"></rect><path fill="#fff" d="M392.08 101.97q2.29 0 3.54 1.15 1.25 1.16 1.25 3.27 0 .44-.05.89-.06.46-.19.67h-8.76v.26q0 .98.26 1.89.26.91.78 1.62.52.7 1.32 1.11.79.42 1.88.42.62 0 1.22-.14.6-.15 1.15-.37.54-.22 1.01-.48t.83-.52l.31 1.48q-.33.21-.83.46-.49.25-1.09.45-.6.21-1.31.35-.72.15-1.5.15-1.45 0-2.57-.51-1.12-.51-1.87-1.38-.76-.87-1.15-2.01-.39-1.15-.39-2.39 0-1.28.41-2.44.4-1.15 1.18-2.04.78-.88 1.94-1.39 1.15-.5 2.63-.5m-.07 1.45q-1.72 0-2.67.9t-1.29 2.25h7.1q.03-.13.03-.24v-.23q0-.65-.26-1.16-.26-.5-.7-.84-.45-.34-1.02-.51-.57-.17-1.19-.17"></path><rect width="10.95" height="12.66" x="-5.47" y="-6.33" fill="none" rx="0" ry="0" transform="translate(391.9 108.8)"></rect><path fill="#fff" d="M400.72 111.92v-8.34h-2.01v-.96l2.06-.26.39-3.62h1.38v3.62h2.8v1.22h-2.8v8.29q0 .83.24 1.09.25.26.77.26.6 0 1.07-.18.46-.18.83-.44l.36 1.38q-.44.21-1.15.41-.72.21-1.58.21-.83 0-1.3-.23-.47-.24-.7-.63-.23-.39-.3-.87-.06-.48-.06-.95"></path><rect width="7.1" height="15.86" x="-3.55" y="-7.93" fill="none" rx="0" ry="0" transform="translate(402.76 107.17)"></rect><path fill="#fff" d="M408.85 111.92v-8.34h-2v-.96l2.06-.26.39-3.62h1.37v3.62h2.81v1.22h-2.81v8.29q0 .83.25 1.09.25.26.77.26.6 0 1.06-.18.47-.18.84-.44l.36 1.38q-.44.21-1.16.41-.71.21-1.57.21-.83 0-1.3-.23-.47-.24-.7-.63-.24-.39-.3-.87-.07-.48-.07-.95"></path><rect width="7.1" height="15.86" x="-3.55" y="-7.93" fill="none" rx="0" ry="0" transform="translate(410.9 107.17)"></rect><path fill="#fff" d="M421.8 101.97q2.29 0 3.54 1.15 1.25 1.16 1.25 3.27 0 .44-.06.89-.05.46-.18.67h-8.76v.26q0 .98.26 1.89.26.91.78 1.62.52.7 1.31 1.11.8.42 1.89.42.62 0 1.22-.14.6-.15 1.14-.37.55-.22 1.02-.48t.83-.52l.31 1.48q-.34.21-.83.46-.49.25-1.09.45-.6.21-1.31.35-.72.15-1.5.15-1.46 0-2.57-.51-1.12-.51-1.88-1.38-.75-.87-1.14-2.01-.39-1.15-.39-2.39 0-1.28.4-2.44.41-1.15 1.19-2.04.78-.88 1.93-1.39 1.16-.5 2.64-.5m-.08 1.45q-1.71 0-2.66.9-.95.9-1.29 2.25h7.1q.03-.13.03-.24v-.23q0-.65-.26-1.16-.26-.5-.71-.84-.44-.34-1.01-.51-.57-.17-1.2-.17"></path><rect width="10.95" height="12.66" x="-5.47" y="-6.33" fill="none" rx="0" ry="0" transform="translate(421.62 108.8)"></rect><path fill="#fff" d="m436.88 102.56-.54 1.72q-.42-.23-.84-.38-.41-.14-.8-.14-.52 0-.99.29-.47.28-.86.78-.39.49-.69 1.14-.3.65-.45 1.35v7h-1.82v-11.96h1.43l.21 2.62h.1q.18-.6.48-1.14.3-.55.73-.96.43-.42.97-.67.55-.24 1.25-.24.5 0 1.04.16.55.17.78.43"></path><rect width="6.99" height="12.35" x="-3.5" y="-6.17" fill="none" rx="0" ry="0" transform="translate(433.88 108.64)"></rect></svg></svg>